<svg xmlns="http://www.w3.org/2000/svg" width="31.862" height="33.088" viewBox="0 0 31.862 33.088">
  <path id="Call_Center" data-name="Call Center" d="M31.186,14.755a12.256,12.256,0,0,0-24.51-.231v0A3.676,3.676,0,0,0,3,18.2v4.9a3.676,3.676,0,0,0,3.676,3.676H9.127A3.676,3.676,0,0,0,12.8,23.1V18.2a3.676,3.676,0,0,0-3.676-3.676,9.805,9.805,0,0,1,19.608.233,3.676,3.676,0,0,0-3.676,3.676v4.9A3.676,3.676,0,0,0,27.8,26.875a7.353,7.353,0,0,1-4.314,3.493,3.676,3.676,0,0,0-3.333-2.132H17.706a3.676,3.676,0,0,0,0,7.353h2.451A3.676,3.676,0,0,0,23.7,32.83a9.8,9.8,0,0,0,6.752-5.821h.735a3.676,3.676,0,0,0,3.676-3.676v-4.9a3.676,3.676,0,0,0-3.676-3.676ZM10.353,18.2v4.9a1.225,1.225,0,0,1-1.225,1.225H6.676A1.225,1.225,0,0,1,5.451,23.1V18.2a1.225,1.225,0,0,1,1.225-1.225H9.127A1.225,1.225,0,0,1,10.353,18.2Zm9.8,14.939H17.706a1.225,1.225,0,1,1,0-2.451h2.451a1.225,1.225,0,1,1,0,2.451Zm12.255-9.8a1.225,1.225,0,0,1-1.225,1.225H28.735a1.225,1.225,0,0,1-1.225-1.225v-4.9a1.225,1.225,0,0,1,1.225-1.225h2.451a1.225,1.225,0,0,1,1.225,1.225Z" transform="translate(-3 -2.5)" fill="#ffaf68"/>
</svg>
