<svg id="Groupe_108" data-name="Groupe 108" xmlns="http://www.w3.org/2000/svg" width="36.701" height="36.701" viewBox="0 0 36.701 36.701">
  <path id="Tracé_101" data-name="Tracé 101" d="M0,0H36.7V36.7H0Z" fill="none"/>
  <path id="Tracé_102" data-name="Tracé 102" d="M17.277,2A15.292,15.292,0,1,0,32.584,17.292,15.285,15.285,0,0,0,17.277,2Zm10.6,9.175H23.363a23.931,23.931,0,0,0-2.11-5.444A12.279,12.279,0,0,1,27.874,11.175ZM17.292,5.12a21.542,21.542,0,0,1,2.921,6.056H14.371A21.542,21.542,0,0,1,17.292,5.12ZM5.456,20.35a11.962,11.962,0,0,1,0-6.117h5.169a25.255,25.255,0,0,0-.214,3.058,25.255,25.255,0,0,0,.214,3.058ZM6.71,23.409h4.511a23.931,23.931,0,0,0,2.11,5.444A12.213,12.213,0,0,1,6.71,23.409Zm4.511-12.234H6.71a12.213,12.213,0,0,1,6.621-5.444,23.931,23.931,0,0,0-2.11,5.444Zm6.071,18.289a21.542,21.542,0,0,1-2.921-6.056h5.842A21.542,21.542,0,0,1,17.292,29.465ZM20.87,20.35H13.714a22.5,22.5,0,0,1-.245-3.058,22.3,22.3,0,0,1,.245-3.058H20.87a22.3,22.3,0,0,1,.245,3.058A22.5,22.5,0,0,1,20.87,20.35Zm.382,8.5a23.931,23.931,0,0,0,2.11-5.444h4.511A12.279,12.279,0,0,1,21.253,28.853Zm2.707-8.5a25.255,25.255,0,0,0,.214-3.058,25.255,25.255,0,0,0-.214-3.058h5.169a11.962,11.962,0,0,1,0,6.117Z" transform="translate(1.058 1.058)" fill="#ffaf68"/>
</svg>
