<svg xmlns="http://www.w3.org/2000/svg" width="34.574" height="34.574" viewBox="0 0 34.574 34.574">
  <path id="Shape" d="M15.558,12.612a2.326,2.326,0,0,1-.691-1.729,2.289,2.289,0,0,1,.691-1.729,2.425,2.425,0,0,1,1.729-.691,2.289,2.289,0,0,1,1.729.691,2.425,2.425,0,0,1,.691,1.729,2.289,2.289,0,0,1-.691,1.729,2.47,2.47,0,0,1-1.729.741A2.329,2.329,0,0,1,15.558,12.612Zm4.2,5.68a2.689,2.689,0,0,0-.766-1.7,2.531,2.531,0,0,0-1.7-.766h-2.47a2.841,2.841,0,0,0-1.7.766,2.518,2.518,0,0,0-.766,1.7h2.47V25.7a2.483,2.483,0,0,0,.766,1.7,2.328,2.328,0,0,0,1.7.766h2.47a2.629,2.629,0,0,0,2.47-2.47h-2.47V18.292ZM17.287,4.24a14.04,14.04,0,1,0,0-.025V4.24Zm0-3.26A17.287,17.287,0,1,1,0,18.267,17.306,17.306,0,0,1,17.287.98Z" transform="translate(0 -0.98)" fill="#ffaf68" fill-rule="evenodd"/>
</svg>
