<svg xmlns="http://www.w3.org/2000/svg" width="31" height="26.35" viewBox="0 0 31 26.35">
  <g id="Groupe_113" data-name="Groupe 113" transform="translate(-2 -4)">
    <path id="Tracé_111" data-name="Tracé 111" d="M20.65,15a4.65,4.65,0,1,0,4.65,4.65A4.567,4.567,0,0,0,20.65,15Zm0,6.2a1.55,1.55,0,1,1,1.55-1.55A1.464,1.464,0,0,1,20.65,21.2Z" transform="translate(7.7 6.05)" fill="#ffaf68"/>
    <path id="Tracé_112" data-name="Tracé 112" d="M32.07,17.175a11.417,11.417,0,0,0-2.17-.62V11.75A3.87,3.87,0,0,0,33,7.875,3.837,3.837,0,0,0,29.125,4H25.25A1.464,1.464,0,0,0,23.7,5.55,1.464,1.464,0,0,0,25.25,7.1h3.875a.732.732,0,0,1,.775.775.732.732,0,0,1-.775.775H28.35A1.464,1.464,0,0,0,26.8,10.2v6.355A9.214,9.214,0,0,0,19.67,22.6H17.5V13.3h1.55a1.464,1.464,0,0,0,1.55-1.55,1.464,1.464,0,0,0-1.55-1.55H6.65A1.464,1.464,0,0,0,5.1,11.75,1.464,1.464,0,0,0,6.65,13.3H9.285C4.945,15.47,2,19.5,2,24.15A1.464,1.464,0,0,0,3.55,25.7H3.7a5.311,5.311,0,0,0,10.54,0H19.05a1.55,1.55,0,1,0,3.1,0,6.218,6.218,0,0,1,6.2-6.2,6.426,6.426,0,0,1,2.48.465,1.527,1.527,0,0,0,1.24-2.79ZM8.975,27.25a2.189,2.189,0,0,1-2.17-1.55h4.34A2.189,2.189,0,0,1,8.975,27.25ZM14.4,22.6H5.255c.775-4.03,4.5-7.13,9.145-7.6Z" transform="translate(0 0)" fill="#ffaf68"/>
  </g>
</svg>
