<svg xmlns="http://www.w3.org/2000/svg" width="47.37" height="60.25" viewBox="0 0 47.37 60.25">
  <g id="Groupe_92" data-name="Groupe 92" transform="translate(-105 -972)">
    <g id="Groupe_88" data-name="Groupe 88" transform="translate(98.1 971.924)">
      <path id="Tracé_71" data-name="Tracé 71" d="M27.559,14.874c.094,0,.189.094.283.094a1.025,1.025,0,0,0,.943-.66c.283-.754.566-1.131.754-1.131s.754.283,1.32,1.32a1.035,1.035,0,1,0,1.791-1.037c-.943-1.6-2.168-2.451-3.3-2.262-.66.094-1.791.566-2.451,2.451A1.14,1.14,0,0,0,27.559,14.874Z" transform="translate(-1.148 -0.638)" fill="#fff"/>
      <path id="Tracé_72" data-name="Tracé 72" d="M52.047,15.273l-3.864-2.639L52.047,10Zm0,2.922V54.671H9.068V18.2ZM9.068,9.9l4.053,2.733L9.068,15.368ZM21.6,8.958h2.828L21.6,12.634a1.009,1.009,0,0,0,1.6,1.225l5.938-7.729a18.916,18.916,0,0,1,4.9-4.241c-.189.094-.283.283-.471.471-1.037,1.414-1.508,4.053-1.131,6.975a13.355,13.355,0,0,0,1.32,4.524.97.97,0,0,0,1.7-.943,11.064,11.064,0,0,1-1.131-3.77c-.377-2.639.094-4.713.66-5.467.094-.094.189-.283.377-.283a.72.72,0,0,1,.471.189c.754.566,1.791,2.451,2.074,5.09a11.144,11.144,0,0,1-.189,4.43.893.893,0,0,0,.66,1.225h.283a.918.918,0,0,0,.943-.754A12.07,12.07,0,0,0,39.888,8.3c-.189-2.922-1.32-5.372-2.733-6.409a2.464,2.464,0,0,0-1.885-.566.712.712,0,0,0-.377.094C36.967.381,39.134-.184,40.737.193a8.845,8.845,0,0,1,1.414.566h0a9.22,9.22,0,0,1,1.32,1.7,10.964,10.964,0,0,1,.471,2.733v.189a10.866,10.866,0,0,1-.283,2.451,11.225,11.225,0,0,1-.943,3.016,4.6,4.6,0,0,0-.283.66c-.189.471-.471.943-.66,1.32a.932.932,0,0,0,.377,1.32.85.85,0,0,0,.471.094.99.99,0,0,0,.848-.471c.283-.471.471-.943.754-1.508.094-.189.189-.471.283-.66a21.618,21.618,0,0,0,.848-2.639h4.336l-3.959,2.733h0l-.094.094c-.094,0-.094.094-.189.094h0c0,.094-.094.094-.094.189s-.094.094-.094.189v.377c0,.094,0,.094.094.189a.329.329,0,0,0,.094.189h0l.094.094c.094.094.094.189.189.189l3.959,2.733H11.33l4.053-2.733a1,1,0,0,0,0-1.7L11.33,8.864H21.6Zm32.517,50.9a.831.831,0,0,1-.848.471H7.843a1.18,1.18,0,0,1-.848-.471.883.883,0,0,1,.094-.943L8.6,56.745H52.613l1.508,2.168A.841.841,0,0,1,54.121,59.855Z" transform="translate(0 0)" fill="#fff"/>
    </g>
  </g>
</svg>
