<svg xmlns="http://www.w3.org/2000/svg" width="55.997" height="56" viewBox="0 0 55.997 56">
  <g id="Groupe_90" data-name="Groupe 90" transform="translate(-108 -530)">
    <path id="Tracé_93" data-name="Tracé 93" d="M38.55,4.04c-8.17.57-17.41,4.43-18.33,16.92-.17,5.94-4.8,10.36-8.13,12.75-4.03,2.91-7.14,5.12-7.98,11.32C3.24,51.43,7.67,60,17.95,60c19.94,0,34.08-15.68,34.08-15.68S60.01,36.97,60,27.51c-.02-11.95-9.63-24.3-21.45-23.47ZM49.99,42.12l-.2.2C49.66,42.46,36.25,57,17.95,57A10.335,10.335,0,0,1,7.08,45.44c.66-4.89,2.8-6.44,6.7-9.24,5.89-4.25,9.25-9.6,9.43-15.06a15.085,15.085,0,0,1,5.41-10.38A15.449,15.449,0,0,1,39.76,7C49.9,7.88,56.99,18.52,57,27.51,57.01,35.47,50.06,42.05,49.99,42.12ZM39.58,9c-.32-.03-.65-.05-.98-.05a13.614,13.614,0,0,0-8.68,3.33,13.106,13.106,0,0,0-4.71,8.97C25,27.3,21.36,33.2,14.95,37.82c-3.78,2.72-5.34,3.85-5.89,7.89a8.49,8.49,0,0,0,2.03,6.5A8.676,8.676,0,0,0,17.95,55c17.33,0,30.24-13.89,30.37-14.03l.3-.31c.07-.06,6.39-6.1,6.38-13.14C54.99,19.39,48.65,9.78,39.58,9ZM42,28a5,5,0,1,1,5-5A5,5,0,0,1,42,28Z" transform="translate(103.997 526)" fill="#fff"/>
  </g>
</svg>
