<svg xmlns="http://www.w3.org/2000/svg" width="59.074" height="38.712" viewBox="0 0 59.074 38.712">
  <path id="Tracé_102" data-name="Tracé 102" d="M5.375,3.073a3.81,3.81,0,0,0-.642.073A2.8,2.8,0,0,0,2.526,5.423L1.152,10.568l22.609,6.055a1.063,1.063,0,0,1,.432.226l3.368,2.992,30.59,8.2,1.924-7.193A2.788,2.788,0,0,0,59.3,17.77a4.308,4.308,0,0,0-1.484-.833L6.438,3.171A4.247,4.247,0,0,0,5.375,3.073Zm48.59,15.307a3.193,3.193,0,1,1-3.187,3.2A3.219,3.219,0,0,1,53.965,18.381Zm0,2.13a1.064,1.064,0,1,0,1.068,1.068,1.048,1.048,0,0,0-1.068-1.068ZM1.836,12.949l21.132,5.66,1.236,1.1L1.836,19.457Zm38.97,12.646,15.287,4.093v3.591H36.613ZM1.836,30.083H22.049v3.2H1.836Zm0,5.326H58.222V38.6a2.785,2.785,0,0,1-1.54,2.772,4.247,4.247,0,0,1-1.65.416h-50a4.268,4.268,0,0,1-1.656-.416A2.793,2.793,0,0,1,1.836,38.6Z" transform="translate(-1.152 -3.071)" fill="#fff"/>
</svg>
