<svg xmlns="http://www.w3.org/2000/svg" width="48" height="48" viewBox="0 0 48 48">
  <g id="Groupe_91" data-name="Groupe 91" transform="translate(-112 -766)">
    <g id="Layer_2" data-name="Layer 2" transform="translate(110 764)">
      <path id="Tracé_73" data-name="Tracé 73" d="M48.286,2H3.714A1.714,1.714,0,0,0,2,3.714V32.857a1.714,1.714,0,0,0,1.714,1.714H48.286A1.714,1.714,0,0,0,50,32.857V3.714A1.714,1.714,0,0,0,48.286,2Zm-36,27.429a5.143,5.143,0,1,1,5.143-5.143A5.143,5.143,0,0,1,12.286,29.429Zm0-12a5.143,5.143,0,1,1,5.143-5.143A5.143,5.143,0,0,1,12.286,17.429ZM26,29.429a5.143,5.143,0,1,1,5.143-5.143A5.143,5.143,0,0,1,26,29.429Zm0-12a5.143,5.143,0,1,1,5.143-5.143A5.143,5.143,0,0,1,26,17.429Zm13.714,12a5.143,5.143,0,1,1,5.143-5.143A5.143,5.143,0,0,1,39.714,29.429Zm0-12a5.143,5.143,0,1,1,5.143-5.143A5.143,5.143,0,0,1,39.714,17.429ZM32.857,38V48.286H7.143A5.143,5.143,0,1,1,7.143,38Zm10.286,5.143a1.714,1.714,0,0,0,1.714,1.714H50v3.429A1.718,1.718,0,0,1,48.286,50H48.08L36.286,48.509V37.777L48.08,36.286A1.711,1.711,0,0,1,50,38v3.429H44.857A1.714,1.714,0,0,0,43.143,43.143Z" transform="translate(0)" fill="#fff"/>
    </g>
  </g>
</svg>
