<svg xmlns="http://www.w3.org/2000/svg" width="54" height="54" viewBox="0 0 54 54">
  <g id="Groupe_87" data-name="Groupe 87" transform="translate(-0.813 -0.696)">
    <rect id="Rectangle_94" data-name="Rectangle 94" width="54" height="54" transform="translate(0.813 0.696)" fill="none"/>
    <path id="Tracé_66" data-name="Tracé 66" d="M45.028,9.746a10.229,10.229,0,0,1,4.9-2.392c3.73-.591,3.522.681,2.839,1.721a2.428,2.428,0,0,1-2.1,1.1,9.946,9.946,0,0,0-4.409.975,7.806,7.806,0,0,1-1.233-1.4Zm-1.159.551a8.437,8.437,0,0,0,1.057,1.313.631.631,0,0,0-.2.323,38.94,38.94,0,0,0-.9,4.294,1.961,1.961,0,0,0,.1.7l.031.084c.226.58,1.3,2.1,1.529,2.8a.687.687,0,0,1-.026.5l-1.283,2.89a1.953,1.953,0,0,0-.131,1.182l.386,1.923a.717.717,0,0,1-.189.629l-.485.525-4.237-6.693a2.747,2.747,0,0,0-4.527-.167C31.109,25.817,19.6,41.33,16.887,45.009a2.736,2.736,0,0,0-.1,3.111l.014.022a18.8,18.8,0,0,0,9.06,6.54A20.716,20.716,0,0,1,14,54.395a.636.636,0,0,0,.28-.579s-.17-2.135-.236-2.972a.922.922,0,0,1,.045-.374,3.4,3.4,0,0,1,.431-.656,4.705,4.705,0,0,0,.6-.987h0a2.193,2.193,0,0,0,.113-.893c-.043-.536-.322-1.769-.377-2.468a.837.837,0,0,1,.207-.644h0c.565-.6,1.238-1.066,1.853-1.722a1.04,1.04,0,0,0,.216-.376,3.218,3.218,0,0,0,.127-.818,13.68,13.68,0,0,0-.19-2.737h0a.855.855,0,0,1,.226-.862l1.59-1.4a2.038,2.038,0,0,0,.65-1.145l.575-2.936a.746.746,0,0,1,.337-.5l.958-.58a2.017,2.017,0,0,0,.935-1.4l.342-1.99a.757.757,0,0,1,.309-.5l2.625-1.8a2.02,2.02,0,0,0,.834-1.29l.348-1.789a.723.723,0,0,1,.553-.59l1.788-.372a1.973,1.973,0,0,0,1.5-1.405l.612-2.11a.718.718,0,0,1,.441-.487l1.846-.663a1.955,1.955,0,0,0,.944-.724L36.3,14.035a.685.685,0,0,1,.411-.279c.751-.171,2.719-.028,3.273-.154h0a1.954,1.954,0,0,0,.647-.277,38.863,38.863,0,0,0,3.209-2.992l.031-.035Zm-1.827-2.49a7,7,0,0,1,1.231,1.456.632.632,0,0,0-.348.183,35.646,35.646,0,0,1-3,2.819h0a.673.673,0,0,1-.226.1c-.555.127-2.522-.017-3.273.154h0a1.954,1.954,0,0,0-1.171.79L33.442,15.9a.685.685,0,0,1-.331.255l-1.846.663a1.981,1.981,0,0,0-1.233,1.33l-.611,2.109a.714.714,0,0,1-.535.514l-1.788.372a1.981,1.981,0,0,0-1.543,1.592l-.349,1.789a.75.75,0,0,1-.3.484l-2.625,1.8a2.024,2.024,0,0,0-.842,1.337l-.343,1.99a.751.751,0,0,1-.34.524l-.958.581a2.012,2.012,0,0,0-.926,1.347l-.575,2.936a.77.77,0,0,1-.241.433l-1.59,1.4a2.124,2.124,0,0,0-.62,2.132,11.954,11.954,0,0,1,.153,2.361,4.072,4.072,0,0,1-.056.446c-.6.625-1.249,1.079-1.8,1.663a2.1,2.1,0,0,0-.548,1.615h0c.056.7.335,1.932.377,2.468a.922.922,0,0,1-.045.374,3.411,3.411,0,0,1-.431.656,4.728,4.728,0,0,0-.6.987h0a2.184,2.184,0,0,0-.112.893c.067.837.236,2.972.236,2.972a.642.642,0,0,0,.018.108,16.771,16.771,0,0,1-3.515-1.988A16.382,16.382,0,0,1,6.9,49.63a.63.63,0,0,0,.2-.134l1.036-1.014a2.11,2.11,0,0,0,.608-1.842l-.6-3.754a.839.839,0,0,1,.154-.632c.518-.7,1.921-1.954,2.392-2.589h0a2.109,2.109,0,0,0,.415-1.257c0-.934-.472-2.955-.472-3.772a.838.838,0,0,1,.091-.38c.35-.688,1.644-2.3,1.893-2.792h0a2.126,2.126,0,0,0,.162-.426h0c.173-.663.378-3.265.587-4.067h0a.848.848,0,0,1,.112-.251h0a14.928,14.928,0,0,1,1.953-1.726,10.244,10.244,0,0,0,1.21-1.082c.026-.04.052-.081.075-.123a9.726,9.726,0,0,0,.441-1.652,13.336,13.336,0,0,1,.8-2.851A.84.84,0,0,1,18.222,19a9.951,9.951,0,0,1,1.585-.673,11.663,11.663,0,0,0,1.756-.747,2.121,2.121,0,0,0,.483-.439h0c.436-.541,1.27-2.635,1.856-3.363a.839.839,0,0,1,.418-.279c.81-.236,2.517-.263,3.34-.5a2.11,2.11,0,0,0,1.082-.74h0c.405-.528,1.146-1.964,1.663-2.638a.837.837,0,0,1,.846-.307h0a5.056,5.056,0,0,1,1.055.45,6.3,6.3,0,0,0,1.283.541h0a2.11,2.11,0,0,0,1.621-.3,5.852,5.852,0,0,0,.889-.845,4.519,4.519,0,0,1,.667-.654.838.838,0,0,1,.723-.1l1.487.487a2.109,2.109,0,0,0,1.664-.151l1.112-.6a.632.632,0,0,0,.291-.332ZM6.131,48.682C.3,40.864,2.142,28.29,10.222,17.336,16.91,8.271,23.3,3.493,31.857,4.015a19.7,19.7,0,0,1,9.237,3.033l-1.062.576a.838.838,0,0,1-.661.06L37.886,7.2a2.111,2.111,0,0,0-1.82.245,5.85,5.85,0,0,0-.9.855,4.489,4.489,0,0,1-.652.644h0a.838.838,0,0,1-.644.119,5.02,5.02,0,0,1-.984-.435,6.415,6.415,0,0,0-1.353-.557,2.111,2.111,0,0,0-2.131.775c-.517.673-1.258,2.109-1.663,2.637a.838.838,0,0,1-.43.294c-.823.24-2.53.268-3.34.5h0a2.111,2.111,0,0,0-1.052.7c-.586.728-1.42,2.822-1.856,3.363a.833.833,0,0,1-.192.174h0a10.436,10.436,0,0,1-1.5.617,11.262,11.262,0,0,0-1.842.8,2.106,2.106,0,0,0-.675.722,14.739,14.739,0,0,0-.936,3.21c-.124.576-.3,1.256-.312,1.305l-.008.013c-.066.058-.544.476-.966.82a16.169,16.169,0,0,0-2.21,2.011,2.117,2.117,0,0,0-.281.631c-.209.8-.414,3.4-.587,4.067a.833.833,0,0,1-.064.169c-.249.489-1.543,2.1-1.893,2.792a2.114,2.114,0,0,0-.229.957c0,.817.472,2.839.472,3.772a.838.838,0,0,1-.165.5C9.2,39.542,7.793,40.8,7.275,41.5a2.111,2.111,0,0,0-.389,1.591l.6,3.754a.839.839,0,0,1-.241.732L6.211,48.587a.626.626,0,0,0-.08.1Zm39.76-36.191c2.126,1.76,4.588,2.9,5.26,6.065,1.128,5.306.033,10.744-2.74,16.259l-3.958-6.251.715-.774a1.98,1.98,0,0,0,.5-1.743l-.386-1.923a.687.687,0,0,1,.047-.415l1.283-2.89a1.954,1.954,0,0,0,.071-1.411h0c-.237-.717-1.324-2.272-1.553-2.862l-.007-.02a.682.682,0,0,1-.034-.244h0a31.177,31.177,0,0,1,.8-3.79Z" transform="translate(-1.206 -1.995)" fill="#fff" fill-rule="evenodd"/>
    <path id="Tracé_67" data-name="Tracé 67" d="M39.441,98.333c3.665,3.779,10.391,7.024,18.075,7.024a27.72,27.72,0,0,0,16.379-5.526l1.421,2.244a1.474,1.474,0,0,1-.223,1.851c-3.762,3.5-10.232,5.817-17.577,5.817-8.762,0-16.279-3.3-19.432-7.975a1.466,1.466,0,0,1,.055-1.666c.548-.755,1.3-1.769,1.3-1.769Z" transform="translate(-21.436 -56.333)" fill="#fff" fill-rule="evenodd"/>
    <path id="Tracé_68" data-name="Tracé 68" d="M43.4,65.757C47.737,59.9,56.212,48.467,59.429,44.13a1.474,1.474,0,0,1,2.429.089L76.407,67.2c-.031.02-.061.041-.09.063a26.413,26.413,0,0,1-15.608,5.266c-7.291,0-13.684-3.052-17.162-6.638A1.325,1.325,0,0,0,43.4,65.757ZM65.56,68.432a.96.96,0,1,1-.961.96A.961.961,0,0,1,65.56,68.432Zm-10.974-.479a.96.96,0,1,1-.96.961A.961.961,0,0,1,54.586,67.954Zm-3.6-6.4a.96.96,0,1,1-.961.96A.961.961,0,0,1,50.989,61.559Zm8.9-.6a.96.96,0,1,1-.96.96A.961.961,0,0,1,59.888,60.955Zm7.913,0a.96.96,0,1,1-.96.96A.961.961,0,0,1,67.8,60.955Zm-3.413-6.2a.96.96,0,1,1-.961.961A.961.961,0,0,1,64.388,54.751Zm-7.7-1.325a.96.96,0,1,1-.96.96A.961.961,0,0,1,56.687,53.426Z" transform="translate(-24.629 -24.775)" fill="#fff" fill-rule="evenodd"/>
  </g>
</svg>
