<svg xmlns="http://www.w3.org/2000/svg" width="67.878" height="41.313" viewBox="0 0 67.878 41.313">
  <g id="Groupe_94" data-name="Groupe 94" transform="translate(-101.561 -1432.843)">
    <g id="Groupe_89" data-name="Groupe 89" transform="translate(100.57 1431.901)">
      <path id="Tracé_91" data-name="Tracé 91" d="M16.686,16.19c-1.6-1.947-1.661-5.262.236-8.59,1.3-2.412,4.571-4.862,7.332-6.474a1.334,1.334,0,0,1,1.352,0c2.763,1.612,6.033,4.063,7.333,6.474,1.9,3.328,1.834,6.642.235,8.59Zm20.081,0c-1.6-1.947-1.662-5.262.235-8.59,1.3-2.412,4.571-4.862,7.332-6.474a1.337,1.337,0,0,1,1.353,0c2.761,1.612,6.032,4.063,7.332,6.474,1.9,3.328,1.834,6.642.235,8.59ZM54.651,26.327a8.356,8.356,0,0,1,14.1,1.922,1.337,1.337,0,0,1,.088.813l-2.5,12.123a1.347,1.347,0,0,1-1.316,1.07H4.915A1.339,1.339,0,0,1,3.6,41.2L1.021,29.074a1.339,1.339,0,0,1,.086-.825.218.218,0,0,0,.019-.052,8.367,8.367,0,0,1,14.05-1.922,8.548,8.548,0,0,1,6.491-3.005,8.34,8.34,0,0,1,6.483,3.082,10.458,10.458,0,0,1,7.206-3.082,8.317,8.317,0,0,1,6.418,3.005,8.353,8.353,0,0,1,12.875.052Z" transform="translate(0)" fill="#fff" fill-rule="evenodd"/>
      <path id="Tracé_92" data-name="Tracé 92" d="M31.53,119.532v-2.489a3.287,3.287,0,0,1,3.273-3.276H88.336a3.287,3.287,0,0,1,3.273,3.276v2.528a11.081,11.081,0,0,0-10.359,1.367,11.074,11.074,0,0,0-12.875-.026,11.019,11.019,0,0,0-6.418-2.051,13.38,13.38,0,0,0-7.07,2.193,11.012,11.012,0,0,0-6.619-2.193,11.187,11.187,0,0,0-6.477,2.064,11.13,11.13,0,0,0-10.261-1.393Z" transform="translate(-26.6 -98.274)" fill="#fff" fill-rule="evenodd"/>
    </g>
  </g>
</svg>
