<svg xmlns="http://www.w3.org/2000/svg" width="60.743" height="45.934" viewBox="0 0 60.743 45.934">
  <g id="Groupe_3" data-name="Groupe 3" transform="translate(0)">
    <path id="Tracé_4" data-name="Tracé 4" d="M34.27,28.02a4.728,4.728,0,1,0-4.728-4.728A4.734,4.734,0,0,0,34.27,28.02Zm0-8.106a3.377,3.377,0,1,1-3.377,3.377A3.381,3.381,0,0,1,34.27,19.914ZM3.9,56.391A8.793,8.793,0,0,0,12.655,64.5H55.886a8.793,8.793,0,0,0,8.756-8.106Z" transform="translate(-3.899 -18.563)" fill="#fff"/>
    <path id="Tracé_5" data-name="Tracé 5" d="M6.383,54.333H11.79A22.4,22.4,0,0,1,22.923,35.709a.675.675,0,0,1,.678,1.168,21.039,21.039,0,0,0-10.46,17.455H61.757a27.7,27.7,0,0,0-55.374,0ZM34.07,32.717a22.111,22.111,0,0,1,8.36,1.627.675.675,0,1,1-.508,1.252,20.769,20.769,0,0,0-7.852-1.527.675.675,0,1,1,0-1.351Z" transform="translate(-3.698 -17.856)" fill="#fff"/>
  </g>
</svg>
