<svg xmlns="http://www.w3.org/2000/svg" width="54.475" height="54.468" viewBox="0 0 54.475 54.468">
  <path id="Tracé_97" data-name="Tracé 97" d="M13.517,23.55,9.979,27.088a5.607,5.607,0,0,0,0,7.909l.813.813c-3.03.37-6.028,1.2-7.75,2.935A9.462,9.462,0,0,0,1.2,41.215a2.026,2.026,0,0,0,.38,2.313L12.946,54.879a1.979,1.979,0,0,0,2.3.38,9.446,9.446,0,0,0,2.481-1.827c1.722-1.732,2.566-4.73,2.935-7.76l.813.813A5.433,5.433,0,0,0,23.45,47.75l-9.934-24.2ZM9.589,41.669a.626.626,0,0,1-.243.053.665.665,0,0,1-.254-1.278l4.5-1.837.9.9a.636.636,0,0,1-.327.3L9.589,41.669Zm5.871,5.142a.675.675,0,0,1-.613.412.723.723,0,0,1-.253-.053.653.653,0,0,1-.359-.856L16.1,41.742a.6.6,0,0,1,.306-.317l.887.887-1.838,4.5Zm5.713-30.9L32.459,43.4l3.326-3.337L24.5,12.58ZM54.886,12.95,43.525,1.589a2.011,2.011,0,0,0-2.3-.38,9.5,9.5,0,0,0-2.481,1.837c-1.722,1.722-2.566,4.72-2.935,7.75L35,9.983a5.6,5.6,0,0,0-1.13-.876l9.566,23.314,3.052-3.052a5.563,5.563,0,0,0,.01-7.887l-.813-.813c3.03-.38,6.018-1.214,7.75-2.935a9.964,9.964,0,0,0,1.837-2.481,2,2,0,0,0-.381-2.3ZM38.6,13.593l1.837-4.5a.667.667,0,0,1,.866-.359.653.653,0,0,1,.359.856L39.8,14.164a.641.641,0,0,1-.3.322l-.892-.893Zm8.2,1.869L42.31,17.3l-.887-.887a.6.6,0,0,1,.317-.306l4.571-1.869a.658.658,0,0,1,.856.359.665.665,0,0,1-.359.867ZM14.732,22.343,25.319,48.116a5.555,5.555,0,0,0,4.054-1.635l1.867-1.867L19.951,17.124l-5.219,5.219ZM27.1,9.979l-1.389,1.389L37,38.85l5.218-5.219L31.859,8.411A5.551,5.551,0,0,0,27.1,9.979Z" transform="translate(-0.999 -1.004)" fill="#fff"/>
</svg>
