<svg xmlns="http://www.w3.org/2000/svg" width="67.878" height="47.067" viewBox="0 0 67.878 47.067">
  <g id="layer1" transform="translate(-657.09 -80.624)">
    <path id="path863" d="M309.1,127.654c-11.327-.609-19.3-2.2-24.907-4.98-2.347-1.162-4.082-2.6-4.71-3.892a3.93,3.93,0,0,1-.024-3.361,10.646,10.646,0,0,1,2.733-2.8l.578-.395.12.754c.467,2.92,4.161,5.465,10.438,7.19,15.065,4.142,38.451,2.569,46.782-3.147a6.4,6.4,0,0,0,2.944-3.931l.2-.884,1.141.848a8.592,8.592,0,0,1,1.71,1.706c1.426,2.153,1.1,3.838-1.124,5.853-3.536,3.2-12.045,5.7-22.745,6.676-3.009.275-10.794.492-13.141.366Zm-3.609-7.132c-8.991-.762-16.613-2.97-19.527-5.657q-2.272-2.1-.763-3.963l.338-.417.583.415c1.841,1.311,6.316,2.915,10.578,3.791a97.287,97.287,0,0,0,16.583,1.595c1.288,0,1.548.056,1.851.391a4.723,4.723,0,0,0,2.57,1.212,3.938,3.938,0,0,0,3.482-1.268c.6-.6,1.043-.889,1.365-.889a64.739,64.739,0,0,0,11.1-2.138,28.289,28.289,0,0,0,6.178-2.676c.663-.472.859-.375,1.314.653s.308,1.725-.6,2.755c-2.6,2.953-9.772,5.208-19.488,6.125a139.755,139.755,0,0,1-15.564.07Zm11.581-4.549a3.532,3.532,0,0,1-1.018-.856c-.36-.49-.389-.834-.476-5.645l-.093-5.123-.508-.864c-.509-.866-1.878-2.19-2.263-2.19a9.807,9.807,0,0,1-1.664-.921c-2.394-1.511-2.744-1.586-7.133-1.522-4.452.065-5.769-.14-8.051-1.254a8.19,8.19,0,0,1-3.9-3.433,3.359,3.359,0,0,1-.418-2.171,6.207,6.207,0,0,1,.415-1.856,7.5,7.5,0,0,1,2.6-2.638,56.5,56.5,0,0,1,9.724-1.695l1.419-.109.1,1.238a7.255,7.255,0,0,0,14.453-.223,2.655,2.655,0,0,1,.2-.916c.241-.241,6.583.622,9.543,1.3a1.971,1.971,0,0,1,1.526.969,4.454,4.454,0,0,1,.663,3.335c-.3,1.395-1.18,2.459-3.118,3.757a8.264,8.264,0,0,0-3.186,3.27,6.525,6.525,0,0,1-1.838,1.758c-1.7,1.144-2.342,1.786-2.854,2.869-.427.9-.438,1.051-.44,6.015,0,4.478-.041,5.166-.326,5.725A2.491,2.491,0,0,1,317.068,115.973Zm-11.581-1.74c-11.77-.962-20.99-4.532-20.857-8.077a2.947,2.947,0,0,1,.774-1.807c.1-.064.416.045.7.243a24.918,24.918,0,0,0,4.457,2.142c4.945,1.776,11.78,2.865,19.974,3.181l3.378.13v4.391l-3.285-.026c-1.807-.014-4.118-.094-5.136-.177Zm16.936-2.456v-2.293l1.8-.219a69.615,69.615,0,0,0,9.475-1.982,28.122,28.122,0,0,0,6.129-2.665c.681-.485.942-.327,1.388.84.4,1.046.17,1.781-.892,2.855-2.522,2.551-8.168,4.413-17.117,5.648l-.787.109ZM309.1,108.123c-9.119-.326-17.837-2.256-21.886-4.847a6.852,6.852,0,0,1-2.6-2.839,2.935,2.935,0,0,1,.584-2.087l.345-.446.532.376A19.083,19.083,0,0,0,287.9,99.3c4.8,2.4,12.624,3.915,22.279,4.319l3.029.127.357.806a4.5,4.5,0,0,1,.3,2.243l-.054,1.436-.555.008c-.305,0-2.179-.05-4.165-.121Zm13.327-2.02a7.3,7.3,0,0,1,.268-2.316,2.727,2.727,0,0,1,.324-.643c.573-.009,5.444-.837,7.095-1.206,3.934-.88,8.745-2.69,9.931-3.736.412-.364.673-.175,1.1.8.479,1.083.241,1.979-.8,3.024-2.543,2.543-8.407,4.475-17.132,5.645l-.787.105Zm-16.2-4.384c-2.089-.143-7.176-.851-9.247-1.286-5.892-1.238-10.191-3.135-11.811-5.215a2.106,2.106,0,0,1-.5-1.515c0-1.175.744-2.174,2.43-3.265a15.942,15.942,0,0,1,3.585-1.73c.055,0-.06.314-.256.7-1.866,3.657.271,7.83,5.1,9.967a14.53,14.53,0,0,0,6.63,1.186c4.782-.11,5.329-.081,6.256.329a9.806,9.806,0,0,1,1.282.673c.385.27.319.286-1.065.255-.812-.018-1.892-.062-2.4-.1Zm20.412-1.425a8.116,8.116,0,0,0,.946-1.367,5.255,5.255,0,0,1,2.345-2.25c2.944-1.661,4.6-4.814,3.927-7.459-.208-.812-.219-1.064-.046-1.064a26.726,26.726,0,0,1,4.453,1.861c2.123,1.213,3.394,2.864,3.13,4.065-.249,1.135-1.879,2.639-4.046,3.733a45.5,45.5,0,0,1-10.476,3.028l-.826.13Zm-15.324-8.8a5.62,5.62,0,0,1-3.837-4.977,5.444,5.444,0,0,1,3.057-5.343,6,6,0,0,1,4.816-.093,6.267,6.267,0,0,1,2.635,2.565,4.5,4.5,0,0,1,.453,2.56,4.44,4.44,0,0,1-.418,2.448,5.413,5.413,0,0,1-4.947,2.995,9.152,9.152,0,0,1-1.76-.155Zm5.2-4.646c.682-.365.319-2.285-.623-3.294a4,4,0,0,0-4.827-.7c-.911.534-1.252,1.21-.853,1.691.312.376.8.345,1.521-.094a2.656,2.656,0,0,1,2.509-.082,2.587,2.587,0,0,1,.966,1.821.819.819,0,0,0,.324.651A.768.768,0,0,0,316.512,86.851Z" transform="translate(378)" fill="#fff"/>
  </g>
</svg>
