<svg id="Groupe_103" data-name="Groupe 103" xmlns="http://www.w3.org/2000/svg" width="55" height="55" viewBox="0 0 55 55">
  <path id="Tracé_77" data-name="Tracé 77" d="M0,0H55V55H0Z" fill="none"/>
  <path id="Tracé_78" data-name="Tracé 78" d="M48.9,10.167H39.958V3.292a2.292,2.292,0,0,0-4.583,0v6.875H26.437a2.313,2.313,0,0,0-2.292,2.521l.275,2.773c8.433,1.948,15.538,7.929,15.538,17.623L40,51.417h3.9a3.807,3.807,0,0,0,3.735-3.369l3.529-35.36A2.283,2.283,0,0,0,48.9,10.167ZM33.083,46.833H3.292a2.292,2.292,0,0,0,0,4.583H33.083a2.292,2.292,0,0,0,0-4.583ZM3.521,33.083H32.854a2.274,2.274,0,0,0,2.269-2.658c-1.49-7.4-9.213-11.115-16.935-11.115S2.765,23.023,1.252,30.425a2.286,2.286,0,0,0,2.269,2.658Zm29.562,4.583H3.292a2.292,2.292,0,0,0,0,4.583H33.083a2.292,2.292,0,1,0,0-4.583Z" transform="translate(1.292 1.292)" fill="#fff"/>
</svg>
