<svg xmlns="http://www.w3.org/2000/svg" width="50.354" height="49.734" viewBox="0 0 50.354 49.734">
  <g id="Groupe_125" data-name="Groupe 125" transform="translate(-3 -3.32)">
    <path id="Tracé_101" data-name="Tracé 101" d="M3,53.054H53.354V49.665a6.314,6.314,0,0,1,0-12.1v-15.2L3,29.562Zm37.92-22.5a6.333,6.333,0,1,1-6.333,6.333A6.333,6.333,0,0,1,40.92,30.55ZM17.68,36.534a6.333,6.333,0,1,1-6.333,6.333,6.333,6.333,0,0,1,6.333-6.333ZM7.377,25.011l43.4-6.2L32.689,3.32ZM32.05,7.987a6.333,6.333,0,1,1-6.236,6.333A6.333,6.333,0,0,1,32.05,7.987Z" transform="translate(0 0)" fill="#fff"/>
    <circle id="Ellipse_89" data-name="Ellipse 89" cx="2.46" cy="2.46" r="2.46" transform="translate(38.461 34.404)" fill="#fff"/>
    <circle id="Ellipse_90" data-name="Ellipse 90" cx="2.46" cy="2.46" r="2.46" transform="translate(15.22 40.388)" fill="#fff"/>
    <circle id="Ellipse_91" data-name="Ellipse 91" cx="2.46" cy="2.46" r="2.46" transform="translate(29.687 11.861)" fill="#fff"/>
  </g>
</svg>
