<svg id="Groupe_111" data-name="Groupe 111" xmlns="http://www.w3.org/2000/svg" width="60.656" height="60.656" viewBox="0 0 60.656 60.656">
  <path id="Tracé_94" data-name="Tracé 94" d="M0,0H60.656V60.656H0Z" fill="none"/>
  <path id="Tracé_95" data-name="Tracé 95" d="M24.971,2A30.355,30.355,0,0,0,5.182,9.279,4.971,4.971,0,0,0,4.172,15.5l18.6,33.133a2.52,2.52,0,0,0,4.4,0L45.771,15.5A4.966,4.966,0,0,0,44.76,9.279,30.438,30.438,0,0,0,24.971,2ZM12.335,14.637a5.055,5.055,0,1,1,5.055,5.055A5.07,5.07,0,0,1,12.335,14.637ZM24.971,34.855A5.055,5.055,0,1,1,30.026,29.8,5.07,5.07,0,0,1,24.971,34.855Z" transform="translate(5.356 3.055)" fill="#fff"/>
</svg>
