<svg xmlns="http://www.w3.org/2000/svg" width="68.822" height="30.01" viewBox="0 0 68.822 30.01">
  <g id="Groupe_119" data-name="Groupe 119" transform="translate(-0.991 -19)">
    <circle id="Ellipse_85" data-name="Ellipse 85" cx="1.506" cy="1.506" r="1.506" transform="translate(55.211 32.553)" fill="#fff"/>
    <path id="Tracé_96" data-name="Tracé 96" d="M69.732,33.521C69.625,33.413,62.1,19,45.531,19c-11.832,0-25.277,7.422-31.3,11.186-2.366-3.55-6.669-8.6-11.939-9.358a1.1,1.1,0,0,0-1.076.43,1.273,1.273,0,0,0-.108,1.076l5.808,11.4L1.108,45.675a.989.989,0,0,0,.108,1.076,1.247,1.247,0,0,0,1.076.43c5.163-.86,9.465-5.916,11.724-9.465,7.1,4.518,19.9,11.294,31.515,11.294,16.564,0,24.094-14.306,24.2-14.521a1.483,1.483,0,0,0,0-.968Zm-39.8,4.518a1.068,1.068,0,0,1-1.4-1.613,2.815,2.815,0,0,0,0-4.625,1.068,1.068,0,1,1,1.4-1.613A4.948,4.948,0,0,1,29.935,38.038Zm6.991,3.119a1.068,1.068,0,0,1-1.4-1.613,2.815,2.815,0,0,0,0-4.625,1.328,1.328,0,0,1-.43-.86.978.978,0,0,1,.43-.86,2.815,2.815,0,0,0,0-4.625,1.068,1.068,0,0,1,1.4-1.613,4.937,4.937,0,0,1,.86,7.1A5.03,5.03,0,0,1,36.926,41.158Zm8.39-3.98a4.937,4.937,0,0,1-.86,7.1,1.068,1.068,0,1,1-1.4-1.613,2.815,2.815,0,0,0,0-4.625,1.328,1.328,0,0,1-.43-.86.978.978,0,0,1,.43-.86,2.815,2.815,0,0,0,0-4.625,1.328,1.328,0,0,1-.43-.86.978.978,0,0,1,.43-.86,2.815,2.815,0,0,0,0-4.625,1.068,1.068,0,0,1,1.4-1.613,4.937,4.937,0,0,1,.86,7.1,5.022,5.022,0,0,1,0,6.346Zm11.4.538a3.657,3.657,0,1,1,3.657-3.657A3.627,3.627,0,0,1,56.717,37.716Z" transform="translate(0)" fill="#fff"/>
  </g>
</svg>
