<svg id="Groupe_79" data-name="Groupe 79" xmlns="http://www.w3.org/2000/svg" width="33.409" height="33.409" viewBox="0 0 33.409 33.409">
  <path id="Tracé_80" data-name="Tracé 80" d="M0,0H33.409V33.409H0Z" fill="none"/>
  <path id="Tracé_81" data-name="Tracé 81" d="M3.392,7.568A1.4,1.4,0,0,0,2,8.96v18.1a2.792,2.792,0,0,0,2.784,2.784h18.1a1.392,1.392,0,0,0,0-2.784H6.176a1.4,1.4,0,0,1-1.392-1.392V8.96A1.4,1.4,0,0,0,3.392,7.568ZM27.057,2h-16.7A2.792,2.792,0,0,0,7.568,4.784v16.7a2.792,2.792,0,0,0,2.784,2.784h16.7a2.792,2.792,0,0,0,2.784-2.784V4.784A2.792,2.792,0,0,0,27.057,2ZM24.272,14.528H20.1V18.7a1.392,1.392,0,0,1-2.784,0V14.528H13.136a1.392,1.392,0,0,1,0-2.784h4.176V7.568a1.392,1.392,0,0,1,2.784,0v4.176h4.176a1.392,1.392,0,0,1,0,2.784Z" transform="translate(0.784 0.784)" fill="#fc7700"/>
</svg>
