<svg xmlns="http://www.w3.org/2000/svg" width="18.806" height="16.12" viewBox="0 0 18.806 16.12">
  <g id="Layer_2" data-name="Layer 2" transform="translate(3 -4)">
    <path id="Tracé_58" data-name="Tracé 58" d="M20.806,6.015V8.7H2V6.015A2.015,2.015,0,0,1,4.015,4H6.03V6.015a.672.672,0,1,0,1.343,0V4h8.06V6.015a.672.672,0,0,0,1.343,0V4h2.015a2.015,2.015,0,0,1,2.015,2.015ZM2,10.045V18.1A2.015,2.015,0,0,0,4.015,20.12H18.791A2.015,2.015,0,0,0,20.806,18.1v-8.06Z" transform="translate(-5)" fill="#9400b9"/>
  </g>
</svg>
