<svg xmlns="http://www.w3.org/2000/svg" width="32.515" height="32.888" viewBox="0 0 32.515 32.888">
  <g id="Groupe_29" data-name="Groupe 29" transform="translate(-111 -853.267)">
    <path id="Tracé_34" data-name="Tracé 34" d="M47.2,20.434l-.814-8.854a.774.774,0,0,0-.771-.7H40.891v-1.8a5.077,5.077,0,1,0-10.155,0v1.8H26.008a.774.774,0,0,0-.771.7l-1.682,18.3a2.463,2.463,0,0,0,2.453,2.689H38.418A8.144,8.144,0,1,0,47.2,20.434ZM32.285,9.077a3.529,3.529,0,0,1,7.057,0v1.8H32.285ZM26.007,31.023a.915.915,0,0,1-.911-1l1.618-17.6h4.022v1.412a.774.774,0,1,0,1.549,0V12.425h7.057v1.412a.774.774,0,1,0,1.549,0V12.425h4.022l.718,7.811c-.077,0-.155,0-.233,0a8.146,8.146,0,0,0-7.7,10.791ZM45.4,34.974a6.6,6.6,0,1,1,6.6-6.6A6.6,6.6,0,0,1,45.4,34.974Zm3.639-9.025a.774.774,0,0,1-.024,1.095l-3.954,3.786A.774.774,0,0,1,44,30.84l-2.205-2.025a.774.774,0,1,1,1.047-1.141l1.67,1.534,3.43-3.284A.774.774,0,0,1,49.037,25.949Z" transform="translate(87.457 849.267)" fill="#fc7700"/>
    <path id="Tracé_35" data-name="Tracé 35" d="M2105.979,1882.01c-2.516-.14-2.258-1.787-2.258-1.787l1.654-18.364h19.448l.741,8.954-7.927,11.2Z" transform="translate(-1991.812 -1000.826)" fill="#fc7700"/>
    <g id="Ellipse_34" data-name="Ellipse 34" transform="translate(124 869)" fill="#fc7700" stroke="#fff" stroke-width="2">
      <circle cx="8.5" cy="8.5" r="8.5" stroke="none"/>
      <circle cx="8.5" cy="8.5" r="7.5" fill="none"/>
    </g>
    <path id="Tracé_36" data-name="Tracé 36" d="M2121.456,877.362c.6.492,2.219,2.031,2.219,2.031l4.016-3.859" transform="translate(-1991.721 0.169)" fill="none" stroke="#fff" stroke-linecap="round" stroke-linejoin="round" stroke-width="1.5"/>
    <path id="Tracé_37" data-name="Tracé 37" d="M2134.413,1877.641h-2.552l-.232,3.365-.754,1.995-2.785,2.24,1.914,1.914,5.105-1.914.406-4.235Z" transform="translate(-1992 -1001)" fill="#fff"/>
  </g>
</svg>
