<svg xmlns="http://www.w3.org/2000/svg" width="30" height="32.522" viewBox="0 0 30 32.522">
  <path id="Tracé_34" data-name="Tracé 34" d="M47.2,20.434l-.814-8.854a.774.774,0,0,0-.771-.7H40.891v-1.8a5.077,5.077,0,1,0-10.155,0v1.8H26.008a.774.774,0,0,0-.771.7l-1.682,18.3a2.463,2.463,0,0,0,2.453,2.689H38.418A8.144,8.144,0,1,0,47.2,20.434ZM32.285,9.077a3.529,3.529,0,0,1,7.057,0v1.8H32.285ZM26.007,31.023a.915.915,0,0,1-.911-1l1.618-17.6h4.022v1.412a.774.774,0,1,0,1.549,0V12.425h7.057v1.412a.774.774,0,1,0,1.549,0V12.425h4.022l.718,7.811c-.077,0-.155,0-.233,0a8.146,8.146,0,0,0-7.7,10.791ZM45.4,34.974a6.6,6.6,0,1,1,6.6-6.6A6.6,6.6,0,0,1,45.4,34.974Zm3.639-9.025a.774.774,0,0,1-.024,1.095l-3.954,3.786A.774.774,0,0,1,44,30.84l-2.205-2.025a.774.774,0,1,1,1.047-1.141l1.67,1.534,3.43-3.284A.774.774,0,0,1,49.037,25.949Z" transform="translate(-23.543 -4)"/>
</svg>
