<svg xmlns="http://www.w3.org/2000/svg" width="28" height="29.474" viewBox="0 0 28 29.474">
  <path id="Tracé_19" data-name="Tracé 19" d="M9.811,27.663V23.144a2.1,2.1,0,0,1,2.1-2.091h4.253a2.1,2.1,0,0,1,2.112,2.091h0v4.533a1.805,1.805,0,0,0,1.772,1.8h2.836A5.093,5.093,0,0,0,28,24.407h0V11.551a3.6,3.6,0,0,0-1.418-2.807l-9.7-7.733a4.687,4.687,0,0,0-5.813,0L1.418,8.757A3.567,3.567,0,0,0,0,11.565V24.407a5.093,5.093,0,0,0,5.118,5.067H7.953a1.82,1.82,0,0,0,1.829-1.811h0" fill="#fc7700" fill-rule="evenodd"/>
</svg>
