<svg xmlns="http://www.w3.org/2000/svg" width="27.5" height="29.001" viewBox="0 0 27.5 29.001">
  <path id="Tracé_19" data-name="Tracé 19" d="M8.935,25.193V21.077a1.914,1.914,0,0,1,1.911-1.9h3.873a1.914,1.914,0,0,1,1.924,1.9h0v4.129a1.644,1.644,0,0,0,1.614,1.636h2.582A4.638,4.638,0,0,0,25.5,22.228h0V10.519a3.274,3.274,0,0,0-1.291-2.556L15.377.92a4.268,4.268,0,0,0-5.294,0L1.291,7.976A3.249,3.249,0,0,0,0,10.532v11.7a4.638,4.638,0,0,0,4.661,4.614H7.243a1.657,1.657,0,0,0,1.666-1.649h0" transform="translate(1 1.159)" fill="none" stroke="#000" stroke-linecap="round" stroke-linejoin="round" stroke-width="2" fill-rule="evenodd"/>
</svg>
