<svg id="Groupe_52" data-name="Groupe 52" xmlns="http://www.w3.org/2000/svg" width="30.526" height="26.921" viewBox="0 0 30.526 26.921">
  <path id="Tracé_43" data-name="Tracé 43" d="M25.064,32.466a4.348,4.348,0,0,1-4.172-2.994h8.343A4.394,4.394,0,0,1,25.064,32.466Zm-18.011,0a4.523,4.523,0,0,1-4.221-2.994h8.441A4.475,4.475,0,0,1,7.053,32.466Zm17.471-18.5H21.384a1.476,1.476,0,0,1-1.472-1.472v-.147H18.194a.492.492,0,0,1-.491-.491.528.528,0,0,1,.491-.491h1.718v-.147a1.476,1.476,0,0,1,1.472-1.472h.294c-.294-.589-.687-1.325-.932-1.865l-.491.589a.526.526,0,0,1-.687.049.477.477,0,0,1-.049-.687c-.1.1,1.718-2.012,1.767-2.11a.487.487,0,0,1,.736.638l-.589.687c.294.589,1.031,1.963,1.374,2.65h1.718A1.446,1.446,0,0,1,26,11.167v1.276A1.488,1.488,0,0,1,24.524,13.964ZM7.053,23.436a5.241,5.241,0,0,1,5.2,5.055H1.9A5.164,5.164,0,0,1,7.053,23.436Zm18.011.147a4.778,4.778,0,0,1,4.76,4.662.442.442,0,0,0,.049.245H20.255a.368.368,0,0,0,.049-.245A4.778,4.778,0,0,1,25.064,23.583Z" transform="translate(0.652 -5.545)" fill="#9400b9"/>
  <path id="Tracé_44" data-name="Tracé 44" d="M12.859,29.113H23.9a3.205,3.205,0,0,0,1.423-.344,5.849,5.849,0,0,1,.687,2.748v2.846h1.914c2.65,0,3.926-6.135,4.221-9.864a2.013,2.013,0,0,0,.54.049h3.288c1.031,2.454.834,5.006.883,7.705h-.491A5.794,5.794,0,0,0,30.625,37.9a.442.442,0,0,0,.049.245H24.491a6.135,6.135,0,0,0-12.269,0H11.191a.492.492,0,0,1-.491-.491V31.518a5.365,5.365,0,0,1,.736-2.748A3.205,3.205,0,0,0,12.859,29.113Z" transform="translate(-10.651 -15.198)" fill="#9400b9"/>
  <path id="Tracé_45" data-name="Tracé 45" d="M45.851,27.368H34.808a2.184,2.184,0,1,1,0-4.368H45.851a2.184,2.184,0,1,1,0,4.368Z" transform="translate(-32.6 -14.434)" fill="#9400b9"/>
</svg>
