<svg xmlns="http://www.w3.org/2000/svg" width="22.5" height="25.714" viewBox="0 0 22.5 25.714">
  <path id="Tracé_60" data-name="Tracé 60" d="M13.25,0A8.1,8.1,0,0,0,5.214,8.159V9.643H3.607A1.607,1.607,0,0,0,2,11.25V24.107a1.607,1.607,0,0,0,1.607,1.607H22.893A1.607,1.607,0,0,0,24.5,24.107V11.25a1.607,1.607,0,0,0-1.607-1.607H21.286V8.159A8.1,8.1,0,0,0,13.25,0ZM6.821,8.159A6.5,6.5,0,0,1,13.25,1.607a6.5,6.5,0,0,1,6.429,6.552V9.643H6.821ZM22.893,24.107H3.607V11.25H22.893Zm-6.429-6.429a3.214,3.214,0,1,0-3.214,3.214A3.213,3.213,0,0,0,16.464,17.679ZM13.25,19.286a1.607,1.607,0,1,1,1.607-1.607A1.61,1.61,0,0,1,13.25,19.286Z" transform="translate(-2)" fill="#a7a3a3"/>
</svg>
