<svg xmlns="http://www.w3.org/2000/svg" width="43.726" height="38.867" viewBox="0 0 43.726 38.867">
  <path id="Tracé_59" data-name="Tracé 59" d="M13.445,14.753,15.366,2H5.373L1.2,12.931A3.833,3.833,0,0,0,1,14.146C1,16.828,3.794,19,7.246,19,10.428,19,13.059,17.149,13.445,14.753ZM22.863,19c3.449,0,6.246-2.177,6.246-4.858,0-.1-.007-.2-.012-.294L27.86,2H17.866L16.627,13.842c0,.1-.01.2-.01.3C16.617,16.828,19.413,19,22.863,19Zm12.146,2.541v9.605H10.717V21.56a10.222,10.222,0,0,1-3.471.6,10.014,10.014,0,0,1-1.387-.119V37.467a3.408,3.408,0,0,0,3.4,3.4H36.467a3.412,3.412,0,0,0,3.4-3.4V22.046a10.438,10.438,0,0,1-1.387.119A10.093,10.093,0,0,1,35.009,21.545Zm9.523-8.614L40.351,2H30.36l1.919,12.734c.374,2.4,3,4.271,6.2,4.271,3.449,0,6.246-2.177,6.246-4.858A3.9,3.9,0,0,0,44.532,12.931Z" transform="translate(-1 -2)" fill="#fefefe"/>
</svg>
