<svg xmlns="http://www.w3.org/2000/svg" width="19" height="16.889" viewBox="0 0 19 16.889">
  <path id="Tracé_59" data-name="Tracé 59" d="M6.408,7.542,7.243,2H2.9L1.086,6.75A1.665,1.665,0,0,0,1,7.278,2.47,2.47,0,0,0,3.714,9.389,2.575,2.575,0,0,0,6.408,7.542ZM10.5,9.389a2.47,2.47,0,0,0,2.714-2.111c0-.043,0-.087-.005-.128L12.671,2H8.329L7.79,7.146c0,.043,0,.087,0,.132A2.47,2.47,0,0,0,10.5,9.389Zm5.278,1.1v4.174H5.222V10.5a4.442,4.442,0,0,1-1.508.262,4.351,4.351,0,0,1-.6-.052v6.7a1.481,1.481,0,0,0,1.476,1.478H16.411a1.483,1.483,0,0,0,1.478-1.478v-6.7a4.536,4.536,0,0,1-.6.052A4.386,4.386,0,0,1,15.778,10.493ZM19.916,6.75,18.1,2H13.757l.834,5.533a2.569,2.569,0,0,0,2.695,1.856A2.47,2.47,0,0,0,20,7.278,1.7,1.7,0,0,0,19.916,6.75Z" transform="translate(-1 -2)" fill="#9400b9"/>
</svg>
