<svg xmlns="http://www.w3.org/2000/svg" width="31.445" height="21.84" viewBox="0 0 31.445 21.84">
  <g id="Groupe_104" data-name="Groupe 104" transform="translate(-1 -11.08)">
    <path id="Tracé_93" data-name="Tracé 93" d="M29.29,19.86A4.64,4.64,0,1,0,33.93,24.5a4.64,4.64,0,0,0-4.64-4.636Zm0,4.159a1.382,1.382,0,0,1,.476,2.678v.319a.476.476,0,1,1-.953,0V26.7a1.386,1.386,0,0,1-.91-1.3.476.476,0,1,1,.953,0,.434.434,0,1,0,.862,0,.429.429,0,0,0-.429-.429,1.377,1.377,0,0,1-.476-2.673V21.98a.476.476,0,1,1,.953,0v.329a1.382,1.382,0,0,1,.905,1.291.476.476,0,1,1-.953,0,.424.424,0,0,0-.429-.429.429.429,0,1,0,0,.858Zm-6.384,0H21.476a.476.476,0,0,0,0,.953h1.429a.476.476,0,1,0,0-.953Zm14.188,0H35.665a.476.476,0,1,0,0,.953h1.429a.476.476,0,1,0,0-.953Z" transform="translate(-10.471 -4.597)" fill="#9400b9"/>
    <path id="Tracé_94" data-name="Tracé 94" d="M30.325,11.08H7.318a2.125,2.125,0,0,0-2.12,2.1,2.12,2.12,0,0,0-2.1,2.1A2.125,2.125,0,0,0,1,17.4v13.4A2.125,2.125,0,0,0,3.12,32.92H26.132a2.125,2.125,0,0,0,2.115-2.1,2.12,2.12,0,0,0,2.1-2.1,2.12,2.12,0,0,0,2.1-2.12V13.2A2.125,2.125,0,0,0,30.325,11.08Zm-2.1,18.786H5.216A1.167,1.167,0,0,1,4.049,28.7V15.3A1.167,1.167,0,0,1,5.2,14.134V26.6a2.12,2.12,0,0,0,2.12,2.12H29.391a1.163,1.163,0,0,1-1.163,1.148Zm2.163-6.284a.476.476,0,0,1-.476.476,2.13,2.13,0,0,0-2.13,2.13.476.476,0,0,1-.476.476H10.333a.476.476,0,0,1-.476-.476,2.13,2.13,0,0,0-2.13-2.13.476.476,0,0,1-.476-.476V16.221a.476.476,0,0,1,.476-.476,2.13,2.13,0,0,0,2.13-2.13.476.476,0,0,1,.476-.476H27.309a.476.476,0,0,1,.476.476,2.13,2.13,0,0,0,2.13,2.13.476.476,0,0,1,.476.476Z" fill="#9400b9"/>
  </g>
</svg>
