<svg xmlns="http://www.w3.org/2000/svg" width="20.698" height="27.485" viewBox="0 0 20.698 27.485">
  <g id="Groupe_19" data-name="Groupe 19" transform="translate(-3.791 -1.9)">
    <g id="Groupe_20" data-name="Groupe 20">
      <path id="Tracé_23" data-name="Tracé 23" d="M14.141,28.785a2.572,2.572,0,0,0,2.564-2.564H11.576A2.564,2.564,0,0,0,14.141,28.785Zm7.693-8.975V13.4c0-3.936-2.1-7.232-5.77-8.1V4.423a1.923,1.923,0,1,0-3.847,0V5.3c-3.68.872-5.77,4.154-5.77,8.1V19.81L4.794,21.464a1.282,1.282,0,0,0,.9,2.193H22.578a1.286,1.286,0,0,0,.91-2.193Z" fill="none" stroke="#000" stroke-width="1.2"/>
    </g>
  </g>
</svg>
