<svg xmlns="http://www.w3.org/2000/svg" width="34.205" height="34.5" viewBox="0 0 34.205 34.5">
  <g id="Groupe_15" data-name="Groupe 15" transform="translate(-0.44 -0.25)">
    <path id="Tracé_16" data-name="Tracé 16" d="M27.47,23.93H14.92A5.09,5.09,0,0,1,10,20L8,11.87a5.11,5.11,0,0,1,5-6.32H29.5a5.11,5.11,0,0,1,5,6.32l-2,8.15A5.1,5.1,0,0,1,27.47,23.93ZM12.94,8.05a2.62,2.62,0,0,0-2.54,3.23l2,8.15a2.6,2.6,0,0,0,2.54,2H27.47a2.6,2.6,0,0,0,2.54-2l2-8.15a2.61,2.61,0,0,0-2.54-3.23Z" fill="#fff"/>
    <path id="Tracé_17" data-name="Tracé 17" d="M9.46,14a1.25,1.25,0,0,1-1.21-1L6.46,5.23A3.21,3.21,0,0,0,3.32,2.75H1.69a1.25,1.25,0,0,1,0-2.5H3.32A5.71,5.71,0,0,1,8.9,4.66l1.78,7.77a1.24,1.24,0,0,1-.93,1.5,1.43,1.43,0,0,1-.29.07Zm5.65,20.75a4,4,0,1,1,4-4A4,4,0,0,1,15.11,34.75Zm0-5.54a1.52,1.52,0,1,0,1.52,1.52,1.52,1.52,0,0,0-1.52-1.52Zm13.82,5.54a4,4,0,1,1,4-4A4,4,0,0,1,28.93,34.75Zm0-5.54a1.52,1.52,0,1,0,1.081.442,1.52,1.52,0,0,0-1.081-.442Z" fill="#fff"/>
    <path id="Tracé_18" data-name="Tracé 18" d="M28.93,29.21H12.27a3.89,3.89,0,1,1,0-7.78h2.65a1.25,1.25,0,0,1,0,2.5H12.27a1.39,1.39,0,1,0,0,2.78H28.93a1.25,1.25,0,0,1,0,2.5Z" fill="#fff"/>
  </g>
</svg>
