<svg xmlns="http://www.w3.org/2000/svg" width="36.545" height="46.373" viewBox="0 0 36.545 46.373">
  <g id="Groupe_17" data-name="Groupe 17" transform="translate(0)">
    <circle id="Ellipse_24" data-name="Ellipse 24" cx="11.526" cy="11.526" r="11.526" transform="translate(6.757 0)" fill="#fff"/>
    <path id="Tracé_21" data-name="Tracé 21" d="M0,20.461A5.345,5.345,0,0,1,.53,18.12c1.1-2.208,4.218-3.378,6.8-3.908a40.475,40.475,0,0,1,5.653-.795,60.4,60.4,0,0,1,10.577,0,40.959,40.959,0,0,1,5.653.795c2.583.53,5.7,1.59,6.8,3.908a5.476,5.476,0,0,1,0,4.7c-1.1,2.319-4.218,3.378-6.8,3.886a37.927,37.927,0,0,1-5.653.817,62.3,62.3,0,0,1-8.612.133,9.794,9.794,0,0,1-1.965-.133,37.191,37.191,0,0,1-5.631-.817C4.748,26.2,1.656,25.142.53,22.824A5.5,5.5,0,0,1,0,20.461Z" transform="translate(0 18.623)" fill="#fff" fill-rule="evenodd"/>
  </g>
</svg>
