<svg xmlns="http://www.w3.org/2000/svg" width="20.54" height="25.636" viewBox="0 0 20.54 25.636">
  <g id="Groupe_88" data-name="Groupe 88" transform="translate(0.75 0.75)">
    <circle id="Ellipse_24" data-name="Ellipse 24" cx="5.999" cy="5.999" r="5.999" transform="translate(3.517 0)" fill="none" stroke="#a7a3a3" stroke-linecap="round" stroke-linejoin="round" stroke-width="1.5"/>
    <path id="Tracé_21" data-name="Tracé 21" d="M0,16.972a2.782,2.782,0,0,1,.276-1.218C.85,14.6,2.471,14,3.816,13.72a21.066,21.066,0,0,1,2.942-.414,31.439,31.439,0,0,1,5.505,0,21.319,21.319,0,0,1,2.942.414c1.345.276,2.965.827,3.54,2.034a2.85,2.85,0,0,1,0,2.448c-.575,1.207-2.2,1.758-3.54,2.023a19.74,19.74,0,0,1-2.942.425,32.426,32.426,0,0,1-4.482.069,5.1,5.1,0,0,1-1.023-.069,19.357,19.357,0,0,1-2.931-.425C2.471,19.96.862,19.409.276,18.2A2.862,2.862,0,0,1,0,16.972Z" transform="translate(0 3.37)" fill="none" stroke="#a7a3a3" stroke-linecap="round" stroke-linejoin="round" stroke-width="1.5" fill-rule="evenodd"/>
  </g>
</svg>
