<svg xmlns="http://www.w3.org/2000/svg" width="26.412" height="26.522" viewBox="0 0 26.412 26.522">
  <path id="Tracé_61" data-name="Tracé 61" d="M104.765,98.981c-1.079-1.109-4.147-3.186-6.158-3.186a2.187,2.187,0,0,0-1.205.318,6.616,6.616,0,0,1-2.144,1.116c-.207,0-.429-.185-.917-.606l-.081-.074a25.649,25.649,0,0,1-2.166-2.026l-.133-.14c-.1-.1-.177-.185-.259-.266-.458-.473-.791-.813-1.966-2.144l-.052-.059c-.562-.636-.931-1.05-.954-1.353s.237-.776.895-1.671a3.656,3.656,0,0,0,.1-3.955,17.992,17.992,0,0,0-2.38-3.415l-.074-.089A3.192,3.192,0,0,0,84.76,80.1a4.438,4.438,0,0,0-2.366.858c-.037.022-.074.052-.111.074a4.744,4.744,0,0,0-2.055,2.454c-.421,1.368-.7,3.142,1.316,6.831a33.008,33.008,0,0,0,5.84,7.918,35.284,35.284,0,0,0,5.766,4.909c2.617,1.893,5.131,2.979,6.89,2.979a5.027,5.027,0,0,0,4.754-2.21C106.716,101.591,105.918,100.171,104.765,98.981Zm-.85,4.133a3.932,3.932,0,0,1-3.866,1.789c-1.5,0-3.829-1.035-6.225-2.757a34.168,34.168,0,0,1-5.611-4.776,31.848,31.848,0,0,1-5.648-7.651c-1.782-3.26-1.582-4.687-1.22-5.862A3.547,3.547,0,0,1,82.9,82.066c.037-.022.074-.052.118-.074a3.411,3.411,0,0,1,1.752-.673,2.081,2.081,0,0,1,1.619.909l.074.089c1.885,2.307,3.356,4.347,2.247,5.855a3.937,3.937,0,0,0-1.131,2.514c.059.717.54,1.257,1.264,2.07l.052.059c1.19,1.345,1.53,1.7,2,2.181.081.081.163.17.259.266l.133.14a28.85,28.85,0,0,0,2.24,2.1l.081.074a2.568,2.568,0,0,0,1.663.895c.658,0,1.382-.414,2.757-1.294a1.109,1.109,0,0,1,.591-.14c1.6,0,4.369,1.833,5.338,2.831C104.846,100.77,105.29,101.45,103.914,103.113Z" transform="translate(-79.73 -79.85)" fill="#a7a3a3" stroke="#a7a3a3" stroke-width="0.5"/>
</svg>
