<svg xmlns="http://www.w3.org/2000/svg" width="28.5" height="28.511" viewBox="0 0 28.5 28.511">
  <path id="Tracé_76" data-name="Tracé 76" d="M4.643.528A4.142,4.142,0,0,0,.529,4.654V24.915A4.142,4.142,0,0,0,4.643,29.04H24.916a4.142,4.142,0,0,0,4.114-4.125V4.654A4.142,4.142,0,0,0,24.916.528Zm0,2.853H10.5v9.982a1.425,1.425,0,0,0,2.43,1l1.854-1.84,1.84,1.84a1.425,1.425,0,0,0,2.43-1V3.381h5.859a1.247,1.247,0,0,1,1.264,1.272V24.915a1.249,1.249,0,0,1-1.264,1.275H4.643a1.247,1.247,0,0,1-1.261-1.275V4.654A1.244,1.244,0,0,1,4.643,3.381Zm8.71,0h2.853V9.923l-.42-.42a1.425,1.425,0,0,0-2.01,0l-.423.42Z" transform="translate(-0.529 -0.528)" fill="#fff"/>
</svg>
