<svg xmlns="http://www.w3.org/2000/svg" width="29.195" height="31" viewBox="0 0 29.195 31">
  <g id="Groupe_106" data-name="Groupe 106" transform="translate(0.409 0.222)">
    <path id="Tracé_96" data-name="Tracé 96" d="M27.223,8.843l-.939-1.63A2.886,2.886,0,0,0,22.348,6.15h0a2.872,2.872,0,0,1-3.936-1.022,2.763,2.763,0,0,1-.387-1.381h0A2.886,2.886,0,0,0,15.14.778H13.248a2.872,2.872,0,0,0-2.872,2.886h0A2.886,2.886,0,0,1,7.489,6.509a2.762,2.762,0,0,1-1.381-.387h0A2.886,2.886,0,0,0,2.173,7.186L1.164,8.843a2.886,2.886,0,0,0,1.05,3.936h0a2.886,2.886,0,0,1,0,5h0A2.872,2.872,0,0,0,1.164,21.7h0l.953,1.643a2.886,2.886,0,0,0,3.936,1.119h0a2.859,2.859,0,0,1,3.922,1.049,2.762,2.762,0,0,1,.387,1.381h0a2.886,2.886,0,0,0,2.886,2.886H15.14a2.886,2.886,0,0,0,2.886-2.872h0a2.872,2.872,0,0,1,2.886-2.886,2.94,2.94,0,0,1,1.381.387h0a2.886,2.886,0,0,0,3.936-1.05h0l.994-1.657a2.872,2.872,0,0,0-1.049-3.936h0a2.872,2.872,0,0,1-1.05-3.936,2.831,2.831,0,0,1,1.05-1.05h0a2.886,2.886,0,0,0,1.049-3.922h0Z" transform="translate(0 0)" fill="none" stroke="#200e32" stroke-linecap="round" stroke-linejoin="round" stroke-width="2" fill-rule="evenodd"/>
    <circle id="Ellipse_75" data-name="Ellipse 75" cx="3.977" cy="3.977" r="3.977" transform="translate(10.224 11.301)" fill="none" stroke="#200e32" stroke-linecap="round" stroke-linejoin="round" stroke-width="2"/>
  </g>
</svg>
