<svg xmlns="http://www.w3.org/2000/svg" width="17.672" height="22.09" viewBox="0 0 17.672 22.09">
  <path id="Tracé_103" data-name="Tracé 103" d="M21.672,13.045a.552.552,0,0,1-.552.552H11.408l2.923,2.923a.552.552,0,1,1-.781.781L9.684,13.435h0a.552.552,0,0,1,0-.781L13.55,8.789a.552.552,0,0,1,.781.781l-2.923,2.923H21.12A.552.552,0,0,1,21.672,13.045ZM6.761,2H18.911a2.764,2.764,0,0,1,2.761,2.761V9.179a.552.552,0,1,1-1.1,0V4.761A1.659,1.659,0,0,0,18.911,3.1H6.761A1.659,1.659,0,0,0,5.1,4.761V21.329a1.659,1.659,0,0,0,1.657,1.657H18.911a1.659,1.659,0,0,0,1.657-1.657V16.911a.552.552,0,1,1,1.1,0v4.418a2.764,2.764,0,0,1-2.761,2.761H6.761A2.764,2.764,0,0,1,4,21.329V4.761A2.764,2.764,0,0,1,6.761,2Z" transform="translate(-4 -2)" fill="#707070"/>
</svg>
